<svg display="none" width="0" height="0" version="1.1" xmlns="http://www.w3.org/2000/svg" xmlns:xlink="http://www.w3.org/1999/xlink">
<defs>
<symbol id="icon-study" viewBox="0 0 1024 1024">
	<title>study</title>
	<path class="path1" d="M1024 256c0-44.992-30.624-83.456-74.432-93.568l-416.416-96.096c-6.976-1.568-14.080-2.336-21.152-2.336s-14.176 0.768-21.6 2.432l-415.968 96c-43.84 10.112-74.432 48.576-74.432 93.568s30.624 83.456 74.4 93.568l85.6 19.744v270.688c0 84.928 97.216 160 352 160s352-75.072 352-160v-270.688l85.568-19.744c43.808-10.112 74.432-48.576 74.432-93.568zM800 640c0 35.36-96 96-288 96s-288-60.64-288-96v-255.904l266.816 61.568c6.976 1.568 14.112 2.336 21.184 2.336s14.208-0.768 21.568-2.432l266.432-61.472v255.904zM519.2 383.2c-2.4 0.512-4.8 0.8-7.2 0.8s-4.832-0.288-7.2-0.8l-416-96c-14.528-3.36-24.8-16.288-24.8-31.2s10.272-27.84 24.8-31.2l416-96c2.368-0.512 4.768-0.8 7.2-0.8s4.832 0.288 7.2 0.8l416 96c14.496 3.36 24.8 16.288 24.8 31.2s-10.304 27.84-24.8 31.2l-416 96zM928 416c0-17.696 14.304-32 32-32 17.664 0 32 14.304 32 32v288c0 17.696-14.336 32-32 32-17.696 0-32-14.304-32-32v-288zM960 768c35.328 0 64 92.672 64 128s-28.672 64-64 64c-35.36 0-64-28.672-64-64s28.64-128 64-128z"></path>
</symbol>
<symbol id="icon-truck" viewBox="0 0 1024 1024">
	<title>truck</title>
	<path class="path1" d="M794.624 366.24c-5.952-8.896-15.936-14.24-26.624-14.24h-32c-17.696 0-32 14.304-32 32v192c0 17.696 14.304 32 32 32h128c17.696 0 32-14.304 32-32v-48c0-6.304-1.888-12.512-5.376-17.76l-96-144zM864 576h-128v-192h32l96 144v48zM1007.872 490.752l-128-192c-17.856-26.784-47.744-42.752-79.872-42.752h-128v-64c0-52.928-43.072-96-96-96h-480c-52.928 0-96 43.072-96 96v352c0 52.928 43.072 96 96 96v0 96c0 52.928 43.072 96 96 96h36.544c14.304 55.072 64 96 123.488 96 59.424 0 109.12-40.928 123.424-96h169.024c14.304 55.072 64 96 123.488 96 59.424 0 109.12-40.928 123.424-96h36.608c52.928 0 96-43.072 96-96v-192c0-19.008-5.568-37.44-16.128-53.248zM96 576c-17.664 0-32-14.304-32-32v-352c0-17.696 14.336-32 32-32h480c17.696 0 32 14.304 32 32v352c0 17.696-14.304 32-32 32h-480zM352.032 864c-35.36 0-64-28.672-64-64s28.64-64 64-64c35.328 0 64 28.672 64 64s-28.704 64-64 64zM768 864c-35.36 0-64-28.672-64-64s28.64-64 64-64c35.328 0 64 28.672 64 64s-28.672 64-64 64zM960 736c0 17.696-14.304 32-32 32h-36.576c-14.304-55.072-64-96-123.424-96-59.488 0-109.184 40.928-123.488 96h-169.024c-14.304-55.072-64-96-123.424-96-59.488 0-109.184 40.928-123.488 96h-36.576c-17.664 0-32-14.304-32-32v-96h416c52.928 0 96-43.072 96-96v-224h128c10.688 0 20.672 5.344 26.624 14.24l128 192c3.488 5.248 5.376 11.456 5.376 17.76v192z"></path>
</symbol>
</defs>
</svg>
